# xmcd
#
# Track frame offsets:
#	183
#	22608
#	43820
#	62520
#	84430
#	106495
#	126535
#	147038
#	162375
#	183210
#
# Disc length: 2707 seconds
#
# Revision: 3
# Processed by: cddbd v1.5.2PL0 Copyright (c) Steve Scherf et al.
# Submitted via: audiograbber 1.82.02
#
DISCID=7d0a910a
DTITLE=Various Artist - Salsa Hits: Pura Salsa
DYEAR=2009
DGENRE=Salsa
TTITLE0=Frankie Ruiz - Tu Me Vuelves Loco
TTITLE1=Edgar Joel - Hasta El Sol De Hoy
TTITLE2=Raul Alfonso - Josefina
TTITLE3=Hector Tricoche - Madie Como Tu
TTITLE4=Hansel Y La Orchestra Calle 8 - Esto No Hay Quien La Aguante
TTITLE5=David Pabon - Por Instinto
TTITLE6=Lalo Rodriguez - Despues De Hacer El Amor
TTITLE7=Marvin Santiago - Fuego a La Jicotea
TTITLE8=Andy Montanez - Solo Amour Por Ella
TTITLE9=Alex D'Castro - Donde Estatas
EXTD=2/3
EXTT0=
EXTT1=
EXTT2=
EXTT3=
EXTT4=
EXTT5=
EXTT6=
EXTT7=
EXTT8=
EXTT9=
PLAYORDER=
